<mxfile host="app.diagrams.net" agent="Mozilla/5.0 (Windows NT 10.0; Win64; x64) AppleWebKit/537.36 (KHTML, like Gecko) Chrome/123.0.0.0 Safari/537.36" version="24.7.17">
  <diagram name="第 1 页" id="1y2o8jDRq0oZavN2LqGU">
    <mxGraphModel dx="1008" dy="592" grid="1" gridSize="10" guides="1" tooltips="1" connect="1" arrows="1" fold="1" page="1" pageScale="1" pageWidth="827" pageHeight="1169" math="0" shadow="0">
      <root>
        <mxCell id="0" />
        <mxCell id="1" parent="0" />
        <mxCell id="wSgPALvMIGNyejNHg-np-1" value="op" style="rounded=0;whiteSpace=wrap;html=1;fontSize=16;" parent="1" vertex="1">
          <mxGeometry x="80" y="120" width="120" height="40" as="geometry" />
        </mxCell>
        <mxCell id="wSgPALvMIGNyejNHg-np-3" value="rs" style="rounded=0;whiteSpace=wrap;html=1;fontSize=16;" parent="1" vertex="1">
          <mxGeometry x="200" y="120" width="100" height="40" as="geometry" />
        </mxCell>
        <mxCell id="wSgPALvMIGNyejNHg-np-4" value="rt" style="rounded=0;whiteSpace=wrap;html=1;fontSize=16;" parent="1" vertex="1">
          <mxGeometry x="300" y="120" width="100" height="40" as="geometry" />
        </mxCell>
        <mxCell id="wSgPALvMIGNyejNHg-np-5" value="rd" style="rounded=0;whiteSpace=wrap;html=1;fontSize=16;" parent="1" vertex="1">
          <mxGeometry x="400" y="120" width="100" height="40" as="geometry" />
        </mxCell>
        <mxCell id="wSgPALvMIGNyejNHg-np-6" value="shamt" style="rounded=0;whiteSpace=wrap;html=1;fontSize=16;" parent="1" vertex="1">
          <mxGeometry x="500" y="120" width="100" height="40" as="geometry" />
        </mxCell>
        <mxCell id="wSgPALvMIGNyejNHg-np-7" value="funct" style="rounded=0;whiteSpace=wrap;html=1;fontSize=16;" parent="1" vertex="1">
          <mxGeometry x="600" y="120" width="120" height="40" as="geometry" />
        </mxCell>
        <mxCell id="wSgPALvMIGNyejNHg-np-8" value="6 位" style="text;html=1;align=center;verticalAlign=middle;whiteSpace=wrap;rounded=0;" parent="1" vertex="1">
          <mxGeometry x="110" y="160" width="60" height="30" as="geometry" />
        </mxCell>
        <mxCell id="wSgPALvMIGNyejNHg-np-9" value="5 位" style="text;html=1;align=center;verticalAlign=middle;whiteSpace=wrap;rounded=0;" parent="1" vertex="1">
          <mxGeometry x="220" y="160" width="60" height="30" as="geometry" />
        </mxCell>
        <mxCell id="wSgPALvMIGNyejNHg-np-10" value="5 位" style="text;html=1;align=center;verticalAlign=middle;whiteSpace=wrap;rounded=0;" parent="1" vertex="1">
          <mxGeometry x="320" y="160" width="60" height="30" as="geometry" />
        </mxCell>
        <mxCell id="wSgPALvMIGNyejNHg-np-11" value="5 位" style="text;html=1;align=center;verticalAlign=middle;whiteSpace=wrap;rounded=0;" parent="1" vertex="1">
          <mxGeometry x="420" y="160" width="60" height="30" as="geometry" />
        </mxCell>
        <mxCell id="wSgPALvMIGNyejNHg-np-12" value="5 位" style="text;html=1;align=center;verticalAlign=middle;whiteSpace=wrap;rounded=0;" parent="1" vertex="1">
          <mxGeometry x="520" y="160" width="60" height="30" as="geometry" />
        </mxCell>
        <mxCell id="wSgPALvMIGNyejNHg-np-13" value="6 位" style="text;html=1;align=center;verticalAlign=middle;whiteSpace=wrap;rounded=0;" parent="1" vertex="1">
          <mxGeometry x="630" y="160" width="60" height="30" as="geometry" />
        </mxCell>
      </root>
    </mxGraphModel>
  </diagram>
</mxfile>
